<svg xmlns="http://www.w3.org/2000/svg" xmlns:xlink="http://www.w3.org/1999/xlink" width="1000" zoomAndPan="magnify" viewBox="0 0 750 749.999995" height="1000" preserveAspectRatio="xMidYMid meet" version="1.0"><defs><clipPath id="35cc35d5ff"><path d="M 373 99.585938 L 402 99.585938 L 402 128 L 373 128 Z M 373 99.585938 " clip-rule="nonzero"/></clipPath></defs><path fill="#d3e8f9" d="M 145.15625 436.632812 L 109.859375 436.632812 L 109.859375 323.585938 L 14.476562 323.585938 L 0.0273438 295.773438 L 113.058594 134.867188 L 145.15625 145.019531 L 145.15625 288.257812 L 171.046875 288.257812 L 171.046875 323.585938 L 145.15625 323.585938 Z M 48.457031 288.257812 L 109.859375 288.257812 L 109.859375 200.859375 Z M 48.457031 288.257812 " fill-opacity="1" fill-rule="nonzero"/><path fill="#d3e8f9" d="M 723.851562 436.632812 L 688.550781 436.632812 L 688.550781 323.585938 L 593.332031 323.585938 L 578.882812 295.773438 L 691.75 134.867188 L 723.851562 145.019531 L 723.851562 288.257812 L 749.972656 288.257812 L 749.972656 323.585938 L 723.851562 323.585938 Z M 627.292969 288.257812 L 688.550781 288.257812 L 688.550781 200.929688 Z M 627.292969 288.257812 " fill-opacity="1" fill-rule="nonzero"/><path fill="#d3e8f9" d="M 382.09375 454.179688 C 360.066406 454.179688 338.675781 449.847656 318.53125 441.320312 C 299.09375 433.078125 281.628906 421.300781 266.640625 406.300781 C 251.648438 391.296875 239.882812 373.824219 231.644531 354.367188 C 223.125 334.207031 218.796875 312.800781 218.796875 290.753906 C 218.796875 268.710938 223.125 247.304688 231.644531 227.144531 C 239.882812 207.6875 251.648438 190.214844 266.640625 175.210938 C 281.628906 160.210938 299.09375 148.433594 318.53125 140.191406 C 338.675781 131.664062 360.066406 127.332031 382.09375 127.332031 C 404.121094 127.332031 425.515625 131.664062 445.660156 140.191406 C 465.097656 148.433594 482.5625 160.210938 497.550781 175.210938 C 512.542969 190.214844 524.308594 207.6875 532.546875 227.144531 C 541.066406 247.304688 545.394531 268.710938 545.394531 290.753906 C 545.394531 312.800781 541.066406 334.207031 532.546875 354.367188 C 524.308594 373.824219 512.542969 391.296875 497.550781 406.300781 C 482.5625 421.300781 465.097656 433.078125 445.660156 441.320312 C 425.515625 449.871094 404.121094 454.179688 382.09375 454.179688 Z M 382.09375 454.179688 " fill-opacity="1" fill-rule="nonzero"/><path fill="#d3e8f9" d="M 382.09375 162.683594 C 311.519531 162.683594 254.09375 220.148438 254.09375 290.78125 C 254.09375 361.410156 311.519531 418.875 382.09375 418.875 C 452.671875 418.875 510.09375 361.410156 510.09375 290.78125 C 510.09375 220.148438 452.671875 162.683594 382.09375 162.683594 Z M 382.09375 162.683594 " fill-opacity="1" fill-rule="nonzero"/><path fill="#0a1324" d="M 698.222656 518.804688 C 698.222656 518.804688 682.386719 537.648438 698.222656 552.835938 C 698.222656 552.835938 674.644531 556.207031 674.644531 533.644531 C 674.644531 511.082031 698.222656 518.804688 698.222656 518.804688 Z M 698.222656 518.804688 " fill-opacity="1" fill-rule="nonzero"/><path fill="#0a1324" d="M 417.609375 378.507812 C 418.925781 368.359375 398.074219 358.773438 398.074219 358.773438 C 380.1875 349.375 360.867188 354.652344 360.867188 354.652344 C 331.710938 360.632812 334.722656 374.835938 334.722656 374.835938 Z M 417.609375 378.507812 " fill-opacity="1" fill-rule="nonzero"/><path fill="#1f3e76" d="M 660.6875 522.878906 L 602.230469 518.617188 L 521.648438 487.105469 C 494.964844 470.195312 464.675781 402.320312 464.675781 402.320312 L 453.425781 405.074219 L 450.953125 459.03125 L 461.238281 470.808594 C 461.238281 470.808594 469.5 487.386719 493.152344 506.535156 L 600.0625 552.742188 L 662.121094 552.835938 " fill-opacity="1" fill-rule="nonzero"/><path fill="#0a1324" d="M 553.726562 499.660156 L 521.625 487.105469 C 518.566406 485.152344 515.4375 482.535156 512.332031 479.425781 C 508.164062 503.121094 486.351562 500.742188 486.351562 500.742188 C 488.46875 502.625 490.726562 504.582031 493.152344 506.535156 L 544.054688 528.53125 Z M 553.726562 499.660156 " fill-opacity="1" fill-rule="nonzero"/><path fill="#87b4de" d="M 459.566406 506.0625 L 464.699219 402.320312 C 464.699219 402.320312 458.226562 386.894531 417.609375 378.507812 C 328.273438 360.066406 279.394531 392.570312 279.394531 392.570312 L 276.921875 477.800781 C 276.921875 477.800781 277.039062 511.953125 277.207031 539.578125 C 277.371094 567.203125 326.015625 562.871094 326.015625 562.871094 L 435.988281 564.566406 L 459.542969 562.871094 L 459.542969 506.0625 Z M 459.566406 506.0625 " fill-opacity="1" fill-rule="nonzero"/><path fill="#1f3e76" d="M 335.40625 392.78125 C 335.40625 392.78125 406.898438 376.105469 453.425781 405.097656 L 450.953125 459.054688 L 340.605469 456.371094 Z M 335.40625 392.78125 " fill-opacity="1" fill-rule="nonzero"/><path fill="#ffffff" d="M 409.441406 426.976562 L 409.441406 417.558594 L 388.261719 417.558594 L 388.261719 405.78125 L 409.441406 405.78125 L 409.441406 396.359375 L 383.625 396.359375 L 378.847656 401.117188 L 378.847656 443.558594 L 383.625 448.175781 L 409.441406 448.175781 L 409.441406 438.753906 L 388.261719 438.753906 L 388.261719 426.976562 Z M 409.441406 426.976562 " fill-opacity="1" fill-rule="nonzero"/><path fill="#87b4de" d="M 305.941406 210.140625 L 289.984375 282.253906 C 289.019531 286.585938 289.632812 291.109375 291.703125 295.042969 L 316.105469 341.414062 C 319 346.902344 324.4375 350.625 330.605469 351.308594 L 468.488281 366.617188 C 477.289062 367.582031 485.574219 362.257812 488.328125 353.851562 L 514.046875 275.449219 C 516.167969 268.96875 514.613281 261.859375 509.976562 256.863281 L 467.851562 211.527344 C 464.652344 208.089844 460.273438 205.96875 455.589844 205.617188 L 325.660156 195.535156 C 316.367188 194.808594 307.964844 201.046875 305.941406 210.140625 Z M 305.941406 210.140625 " fill-opacity="1" fill-rule="nonzero"/><path fill="#1f3e76" d="M 514.046875 275.398438 L 488.328125 353.828125 C 485.574219 362.234375 477.289062 367.582031 468.488281 366.59375 L 330.605469 351.285156 C 327.921875 350.976562 325.402344 350.128906 323.144531 348.785156 L 344.605469 259.171875 C 346.867188 249.730469 355.949219 243.605469 365.527344 245.019531 L 514.800781 267.085938 C 515.179688 269.867188 514.941406 272.691406 514.046875 275.398438 Z M 514.046875 275.398438 " fill-opacity="1" fill-rule="nonzero"/><path stroke-linecap="round" transform="matrix(0.235337, 0, 0, 0.235516, -94.414812, -1.896235)" fill="none" stroke-linejoin="round" d="M 1859.405171 997.601134 L 1740.393617 860.899903 " stroke="#0a1324" stroke-width="10" stroke-opacity="1" stroke-miterlimit="10"/><path fill="#ffffff" d="M 368.421875 307.640625 L 406.125 314.261719 C 406.125 314.261719 398.144531 332.183594 381.367188 328.601562 C 364.585938 325.023438 368.421875 307.640625 368.421875 307.640625 Z M 368.421875 307.640625 " fill-opacity="1" fill-rule="nonzero"/><path fill="#ffffff" d="M 436.152344 318.359375 L 474.347656 324.503906 C 474.347656 324.503906 470.230469 339.882812 449.308594 337.410156 C 428.410156 334.9375 436.152344 318.359375 436.152344 318.359375 Z M 436.152344 318.359375 " fill-opacity="1" fill-rule="nonzero"/><path fill="#1f3e76" d="M 522.332031 569.019531 L 459.472656 562.894531 C 459.472656 562.894531 445.660156 556.136719 445.660156 534.84375 C 445.660156 513.554688 459.472656 506.089844 459.472656 506.089844 L 516.589844 506.300781 " fill-opacity="1" fill-rule="nonzero"/><path fill="#3279af" d="M 570.882812 442.429688 C 543.253906 436.328125 514.285156 479.238281 514.285156 531.476562 C 514.285156 583.714844 540.335938 586.824219 574.929688 586.824219 " fill-opacity="1" fill-rule="nonzero"/><path fill="#0a1324" d="M 570.882812 442.429688 C 602.347656 445.207031 620.066406 580.558594 574.953125 586.824219 C 529.839844 593.085938 533.347656 439.105469 570.882812 442.429688 Z M 570.882812 442.429688 " fill-opacity="1" fill-rule="nonzero"/><path stroke-linecap="round" transform="matrix(0.235337, 0, 0, 0.235516, -94.414812, -1.896235)" fill="none" stroke-linejoin="round" d="M 2383.703349 2157.106879 C 2383.703349 2157.106879 2323.500434 2296.096968 2420.502319 2405.298728 " stroke="#0a1324" stroke-width="10" stroke-opacity="1" stroke-miterlimit="10"/><path stroke-linecap="round" transform="matrix(0.235337, 0, 0, 0.235516, -94.414812, -1.896235)" fill="none" stroke-linejoin="round" d="M 2471.19427 2157.703972 C 2471.19427 2157.703972 2443.39171 2325.105759 2547.198998 2418.700159 " stroke="#0a1324" stroke-width="10" stroke-opacity="1" stroke-miterlimit="10"/><path fill="#1f3e76" d="M 115.011719 510.28125 C 115.011719 510.28125 170.222656 515.839844 206.179688 493.464844 C 243.71875 470.101562 279.394531 392.570312 279.394531 392.570312 C 279.394531 392.570312 293.042969 390.144531 301.234375 410.988281 C 309.421875 431.804688 298.480469 447.585938 298.480469 447.585938 C 298.480469 447.585938 258.402344 511.433594 219.546875 533.808594 C 180.695312 556.183594 117.035156 544.902344 117.035156 544.902344 " fill-opacity="1" fill-rule="nonzero"/><path stroke-linecap="round" transform="matrix(0.235337, 0, 0, 0.235516, -94.414812, -1.896235)" fill="none" stroke-linejoin="round" d="M 1547.103584 1756.705955 C 1547.103584 1756.705955 1596.301666 1779.793569 1611.207157 1993.403755 " stroke="#0a1324" stroke-width="10" stroke-opacity="1" stroke-miterlimit="10"/><path stroke-linecap="round" transform="matrix(0.235337, 0, 0, 0.235516, -94.414812, -1.896235)" fill="none" stroke-linejoin="round" d="M 1468.19411 1890.803195 C 1468.19411 1890.803195 1525.708062 1954.907812 1505.291854 2125.494097 " stroke="#0a1324" stroke-width="10" stroke-opacity="1" stroke-miterlimit="10"/><path stroke-linecap="round" transform="matrix(0.235337, 0, 0, 0.235516, -94.414812, -1.896235)" fill="none" stroke-linejoin="round" d="M 1356.104149 2036.792546 C 1356.104149 2036.792546 1402.397486 2150.605194 1350.892207 2264.401257 " stroke="#0a1324" stroke-width="10" stroke-opacity="1" stroke-miterlimit="10"/><path stroke-linecap="round" transform="matrix(0.235337, 0, 0, 0.235516, -94.414812, -1.896235)" fill="none" stroke-linejoin="round" d="M 1207.497394 2137.203763 C 1207.497394 2137.203763 1217.90468 2268.697012 1131.0943 2330.595701 " stroke="#0a1324" stroke-width="10" stroke-opacity="1" stroke-miterlimit="10"/><path stroke-linecap="round" transform="matrix(0.235337, 0, 0, 0.235516, -94.414812, -1.896235)" fill="none" stroke-linejoin="round" d="M 1029.195845 2174.406003 C 1029.195845 2174.406003 1027.204019 2283.806794 967.100695 2327.394617 " stroke="#0a1324" stroke-width="10" stroke-opacity="1" stroke-miterlimit="10"/><path fill="#0a1324" d="M 714.34375 552.742188 L 735.382812 550.386719 L 735.382812 563.128906 L 713.945312 572.855469 " fill-opacity="1" fill-rule="nonzero"/><path fill="#0a1324" d="M 713.945312 498.667969 L 735.382812 506.582031 L 735.382812 518.59375 L 714.34375 518.617188 " fill-opacity="1" fill-rule="nonzero"/><path fill="#3279af" d="M 678.382812 535.738281 C 678.644531 557.265625 714.367188 552.742188 714.367188 552.742188 L 713.96875 572.855469 C 686.996094 571.960938 658.640625 565.4375 658.214844 537.53125 C 657.792969 509.621094 682.03125 497.726562 714.015625 498.667969 L 714.460938 518.617188 C 714.4375 518.617188 678.125 514.214844 678.382812 535.738281 Z M 678.382812 535.738281 " fill-opacity="1" fill-rule="nonzero"/><path stroke-linecap="round" transform="matrix(0.235337, 0, 0, 0.235516, -94.414812, -1.896235)" fill="none" stroke-linejoin="round" d="M 2438.295957 1841.095164 C 2438.295957 1841.095164 2458.297202 2001.696719 2406.393558 2071.307865 " stroke="#0a1324" stroke-width="10" stroke-opacity="1" stroke-miterlimit="10"/><path stroke-linecap="round" transform="matrix(0.235337, 0, 0, 0.235516, -94.414812, -1.896235)" fill="none" stroke-linejoin="round" d="M 2534.799886 1993.403755 C 2534.799886 1993.403755 2570.802126 2096.501892 2534.799886 2157.703972 " stroke="#0a1324" stroke-width="10" stroke-opacity="1" stroke-miterlimit="10"/><path stroke-linecap="round" transform="matrix(0.235337, 0, 0, 0.235516, -94.414812, -1.896235)" fill="none" stroke-linejoin="round" d="M 3132.696005 2222.70423 C 3132.696005 2222.70423 3111.001709 2312.898514 3173.19645 2355.391666 " stroke="#0a1324" stroke-width="10" stroke-opacity="1" stroke-miterlimit="10"/><path stroke-linecap="round" transform="matrix(0.235337, 0, 0, 0.235516, -94.414812, -1.896235)" fill="none" stroke-linejoin="round" d="M 3010.995487 2213.797586 C 3010.995487 2213.797586 2989.500374 2309.498399 3048.906559 2354.993603 " stroke="#0a1324" stroke-width="10" stroke-opacity="1" stroke-miterlimit="10"/><path fill="#3279af" d="M 387.085938 221.679688 C 387.085938 221.679688 388.847656 191.605469 425.492188 195.464844 C 462.15625 199.351562 460.132812 230.179688 460.132812 230.179688 C 460.132812 230.179688 456.296875 237.625 431.867188 235.503906 C 407.441406 233.382812 387.085938 221.679688 387.085938 221.679688 Z M 387.085938 221.679688 " fill-opacity="1" fill-rule="nonzero"/><path stroke-linecap="round" transform="matrix(0.235337, 0, 0, 0.235516, -94.414812, -1.896235)" fill="none" stroke-linejoin="round" d="M 2173.200627 880.504472 L 2046.005992 497.303157 " stroke="#0a1324" stroke-width="10" stroke-opacity="1" stroke-miterlimit="10"/><g clip-path="url(#35cc35d5ff)"><path fill="#3279af" d="M 401.132812 113.648438 C 401.132812 114.570312 401.042969 115.484375 400.863281 116.390625 C 400.683594 117.296875 400.417969 118.175781 400.066406 119.027344 C 399.710938 119.882812 399.277344 120.691406 398.765625 121.460938 C 398.253906 122.226562 397.671875 122.9375 397.019531 123.589844 C 396.367188 124.242188 395.65625 124.824219 394.890625 125.339844 C 394.121094 125.851562 393.3125 126.285156 392.460938 126.636719 C 391.609375 126.992188 390.730469 127.257812 389.824219 127.4375 C 388.921875 127.617188 388.007812 127.707031 387.085938 127.707031 C 386.160156 127.707031 385.25 127.617188 384.34375 127.4375 C 383.4375 127.257812 382.558594 126.992188 381.707031 126.636719 C 380.855469 126.285156 380.046875 125.851562 379.277344 125.339844 C 378.511719 124.824219 377.800781 124.242188 377.148438 123.589844 C 376.496094 122.9375 375.914062 122.226562 375.402344 121.460938 C 374.890625 120.691406 374.457031 119.882812 374.105469 119.027344 C 373.75 118.175781 373.484375 117.296875 373.304688 116.390625 C 373.125 115.484375 373.035156 114.570312 373.035156 113.648438 C 373.035156 112.726562 373.125 111.808594 373.304688 110.90625 C 373.484375 110 373.75 109.121094 374.105469 108.265625 C 374.457031 107.414062 374.890625 106.605469 375.402344 105.835938 C 375.914062 105.070312 376.496094 104.359375 377.148438 103.707031 C 377.800781 103.054688 378.511719 102.46875 379.277344 101.957031 C 380.046875 101.445312 380.855469 101.011719 381.707031 100.65625 C 382.558594 100.304688 383.4375 100.039062 384.34375 99.859375 C 385.25 99.675781 386.160156 99.585938 387.085938 99.585938 C 388.007812 99.585938 388.921875 99.675781 389.824219 99.859375 C 390.730469 100.039062 391.609375 100.304688 392.460938 100.65625 C 393.3125 101.011719 394.121094 101.445312 394.890625 101.957031 C 395.65625 102.46875 396.367188 103.054688 397.019531 103.707031 C 397.671875 104.359375 398.253906 105.070312 398.765625 105.835938 C 399.277344 106.605469 399.710938 107.414062 400.066406 108.265625 C 400.417969 109.121094 400.683594 110 400.863281 110.90625 C 401.042969 111.808594 401.132812 112.726562 401.132812 113.648438 Z M 401.132812 113.648438 " fill-opacity="1" fill-rule="nonzero"/></g><path stroke-linecap="round" transform="matrix(0.235337, 0, 0, 0.235516, -94.414812, -1.896235)" fill="none" stroke-linejoin="round" d="M 2248.508216 895.697183 L 2385.794766 701.592051 L 2577.092974 880.504472 " stroke="#0a1324" stroke-width="10" stroke-opacity="1" stroke-miterlimit="10"/><path fill="#3279af" d="M 528.921875 209.03125 C 528.921875 209.953125 528.832031 210.871094 528.652344 211.773438 C 528.472656 212.679688 528.207031 213.558594 527.851562 214.414062 C 527.5 215.265625 527.066406 216.074219 526.554688 216.84375 C 526.042969 217.609375 525.460938 218.320312 524.808594 218.972656 C 524.15625 219.625 523.445312 220.210938 522.679688 220.722656 C 521.910156 221.234375 521.101562 221.667969 520.25 222.023438 C 519.398438 222.375 518.519531 222.640625 517.613281 222.820312 C 516.707031 223.003906 515.796875 223.09375 514.871094 223.09375 C 513.949219 223.09375 513.035156 223.003906 512.132812 222.820312 C 511.226562 222.640625 510.347656 222.375 509.496094 222.023438 C 508.644531 221.667969 507.832031 221.234375 507.066406 220.722656 C 506.300781 220.210938 505.589844 219.625 504.9375 218.972656 C 504.285156 218.320312 503.703125 217.609375 503.191406 216.84375 C 502.679688 216.074219 502.246094 215.265625 501.890625 214.414062 C 501.539062 213.558594 501.273438 212.679688 501.09375 211.773438 C 500.914062 210.871094 500.824219 209.953125 500.824219 209.03125 C 500.824219 208.109375 500.914062 207.195312 501.09375 206.289062 C 501.273438 205.382812 501.539062 204.503906 501.890625 203.652344 C 502.246094 202.796875 502.679688 201.988281 503.191406 201.21875 C 503.703125 200.453125 504.285156 199.742188 504.9375 199.089844 C 505.589844 198.4375 506.300781 197.855469 507.066406 197.339844 C 507.832031 196.828125 508.644531 196.394531 509.496094 196.042969 C 510.347656 195.6875 511.226562 195.421875 512.132812 195.242188 C 513.035156 195.0625 513.949219 194.972656 514.871094 194.972656 C 515.796875 194.972656 516.707031 195.0625 517.613281 195.242188 C 518.519531 195.421875 519.398438 195.6875 520.25 196.042969 C 521.101562 196.394531 521.910156 196.828125 522.679688 197.339844 C 523.445312 197.855469 524.15625 198.4375 524.808594 199.089844 C 525.460938 199.742188 526.042969 200.453125 526.554688 201.21875 C 527.066406 201.988281 527.5 202.796875 527.851562 203.652344 C 528.207031 204.503906 528.472656 205.382812 528.652344 206.289062 C 528.832031 207.195312 528.921875 208.109375 528.921875 209.03125 Z M 528.921875 209.03125 " fill-opacity="1" fill-rule="nonzero"/><path fill="#0a1324" d="M 119.339844 546.480469 C 111.90625 569.511719 66.015625 571.609375 66.015625 571.609375 L 43.515625 550.082031 L 48.648438 528.699219 L 19.441406 535.929688 L 1.484375 522.878906 L 5.273438 489.058594 C 5.273438 489.058594 66.390625 477.851562 99.667969 492.191406 C 132.992188 506.558594 126.777344 523.46875 119.339844 546.480469 Z M 119.339844 546.480469 " fill-opacity="1" fill-rule="nonzero"/><path fill="#3279af" d="M 79.097656 530.511719 L 52.269531 513.671875 C 52.269531 513.671875 107.691406 513.4375 88.371094 501.589844 C 69.050781 489.742188 24.265625 505.121094 24.265625 505.121094 L 5.273438 489.058594 C 5.273438 489.058594 66.390625 477.851562 99.667969 492.191406 C 109.152344 496.289062 115.433594 500.578125 119.390625 505.167969 C 131.765625 523.65625 79.097656 530.511719 79.097656 530.511719 Z M 79.097656 530.511719 " fill-opacity="1" fill-rule="nonzero"/><path fill="#87b4de" d="M 79.097656 530.511719 L 66.015625 571.609375 L 43.539062 550.082031 L 52.269531 513.671875 Z M 79.097656 530.511719 " fill-opacity="1" fill-rule="nonzero"/><path fill="#87b4de" d="M 24.289062 505.121094 L 19.441406 535.929688 L 1.507812 522.878906 L 5.296875 489.058594 Z M 24.289062 505.121094 " fill-opacity="1" fill-rule="nonzero"/><path fill="#1f3e76" d="M 388.898438 569.019531 L 326.039062 562.894531 C 326.039062 562.894531 312.222656 556.136719 312.222656 534.84375 C 312.222656 513.554688 326.039062 506.089844 326.039062 506.089844 L 383.15625 506.300781 " fill-opacity="1" fill-rule="nonzero"/><path fill="#3279af" d="M 437.445312 442.429688 C 409.816406 436.328125 380.847656 479.238281 380.847656 531.476562 C 380.847656 583.714844 406.898438 586.824219 441.496094 586.824219 " fill-opacity="1" fill-rule="nonzero"/><path fill="#0a1324" d="M 437.445312 442.429688 C 468.910156 445.207031 486.632812 580.558594 441.519531 586.824219 C 396.402344 593.085938 399.910156 439.105469 437.445312 442.429688 Z M 437.445312 442.429688 " fill-opacity="1" fill-rule="nonzero"/><path stroke-linecap="round" transform="matrix(0.235337, 0, 0, 0.235516, -94.414812, -1.896235)" fill="none" stroke-linejoin="round" d="M 1816.69712 2157.106879 C 1816.69712 2157.106879 1756.494204 2296.096968 1853.49609 2405.298728 " stroke="#0a1324" stroke-width="10" stroke-opacity="1" stroke-miterlimit="10"/><path stroke-linecap="round" transform="matrix(0.235337, 0, 0, 0.235516, -94.414812, -1.896235)" fill="none" stroke-linejoin="round" d="M 1904.204639 2157.703972 C 1904.204639 2157.703972 1876.402079 2325.105759 1980.192769 2418.700159 " stroke="#0a1324" stroke-width="10" stroke-opacity="1" stroke-miterlimit="10"/></svg>