<svg xmlns="http://www.w3.org/2000/svg" xmlns:xlink="http://www.w3.org/1999/xlink" width="1000" zoomAndPan="magnify" viewBox="0 0 750 749.999995" height="1000" preserveAspectRatio="xMidYMid meet" version="1.0"><defs><clipPath id="ab90dfe760"><path d="M 619 33.125 L 652 33.125 L 652 71 L 619 71 Z M 619 33.125 " clip-rule="nonzero"/></clipPath><clipPath id="6ef3e722ee"><path d="M 589 327 L 717.765625 327 L 717.765625 485 L 589 485 Z M 589 327 " clip-rule="nonzero"/></clipPath></defs><path fill="#d1def0" d="M 271.148438 679.359375 C 270.480469 679.359375 269.925781 678.828125 269.90625 678.152344 L 257.257812 288.304688 C 257.242188 287.734375 257.613281 287.222656 258.164062 287.066406 L 422.894531 240.175781 C 423.445312 240.019531 424.03125 240.257812 424.316406 240.753906 L 671.488281 672.539062 C 671.707031 672.921875 671.707031 673.394531 671.488281 673.773438 C 671.265625 674.15625 670.863281 674.398438 670.421875 674.402344 L 271.164062 679.355469 C 271.164062 679.355469 271.15625 679.355469 271.148438 679.355469 Z M 259.777344 289.195312 L 272.355469 676.855469 L 668.273438 671.941406 L 422.640625 242.839844 L 259.78125 289.199219 Z M 259.777344 289.195312 " fill-opacity="1" fill-rule="nonzero"/><path fill="#7a8593" d="M 277.269531 409.445312 C 275.648438 404.371094 272.207031 400.390625 267.902344 397.976562 L 275.519531 342.605469 L 261.15625 340.625 L 253.550781 395.902344 C 252.996094 396.03125 252.441406 396.179688 251.890625 396.351562 C 241.269531 399.75 235.410156 411.113281 238.804688 421.738281 C 242.199219 432.363281 253.558594 438.222656 264.179688 434.828125 C 274.800781 431.429688 280.660156 420.066406 277.261719 409.441406 Z M 277.269531 409.445312 " fill-opacity="1" fill-rule="nonzero"/><path fill="#535a63" d="M 258.050781 437.035156 C 248.976562 437.035156 240.527344 431.21875 237.621094 422.121094 C 234.023438 410.859375 240.253906 398.769531 251.515625 395.167969 C 251.808594 395.074219 252.117188 394.984375 252.4375 394.902344 L 259.925781 340.460938 C 260.023438 339.777344 260.648438 339.300781 261.332031 339.394531 L 275.691406 341.375 C 276.019531 341.417969 276.316406 341.59375 276.515625 341.855469 C 276.714844 342.117188 276.800781 342.449219 276.753906 342.777344 L 269.25 397.324219 C 273.632812 400.011719 276.886719 404.152344 278.457031 409.066406 C 282.054688 420.328125 275.824219 432.417969 264.566406 436.015625 C 262.40625 436.710938 260.210938 437.035156 258.054688 437.035156 Z M 262.21875 342.03125 L 254.785156 396.074219 C 254.714844 396.589844 254.335938 397.003906 253.828125 397.121094 C 253.253906 397.25 252.742188 397.386719 252.269531 397.539062 C 242.320312 400.71875 236.808594 411.40625 239.992188 421.359375 C 242.558594 429.402344 250.027344 434.542969 258.046875 434.542969 C 259.953125 434.542969 261.890625 434.25 263.804688 433.640625 C 273.753906 430.460938 279.261719 419.773438 276.082031 409.820312 C 274.613281 405.234375 271.492188 401.414062 267.289062 399.058594 C 266.84375 398.808594 266.597656 398.308594 266.667969 397.804688 L 274.113281 343.664062 L 262.21875 342.027344 Z M 262.21875 342.03125 " fill-opacity="1" fill-rule="nonzero"/><path fill="#7a8593" d="M 510.582031 334.855469 C 507.1875 324.230469 495.828125 318.371094 485.207031 321.765625 C 484.65625 321.941406 484.121094 322.140625 483.59375 322.363281 L 445.351562 281.742188 L 434.796875 291.679688 L 473.105469 332.371094 C 470.996094 336.835938 470.5 342.074219 472.121094 347.152344 C 475.515625 357.777344 486.878906 363.636719 497.496094 360.242188 C 508.121094 356.84375 513.976562 345.480469 510.585938 334.855469 Z M 510.582031 334.855469 " fill-opacity="1" fill-rule="nonzero"/><path fill="#535a63" d="M 491.367188 362.445312 C 482.289062 362.445312 473.84375 356.628906 470.9375 347.53125 C 469.367188 342.617188 469.617188 337.355469 471.628906 332.625 L 433.890625 292.539062 C 433.421875 292.039062 433.445312 291.25 433.945312 290.777344 L 444.496094 280.835938 C 444.738281 280.609375 445.058594 280.488281 445.386719 280.5 C 445.71875 280.507812 446.03125 280.648438 446.253906 280.890625 L 483.921875 320.894531 C 484.230469 320.777344 484.535156 320.671875 484.828125 320.578125 C 496.085938 316.980469 508.175781 323.214844 511.769531 334.476562 C 515.367188 345.738281 509.136719 357.828125 497.878906 361.425781 C 495.71875 362.117188 493.523438 362.445312 491.371094 362.445312 Z M 436.554688 291.738281 L 474.007812 331.523438 C 474.359375 331.894531 474.445312 332.445312 474.226562 332.910156 C 472.167969 337.265625 471.839844 342.191406 473.304688 346.777344 C 476.484375 356.730469 487.167969 362.242188 497.117188 359.058594 C 507.066406 355.878906 512.574219 345.191406 509.394531 335.238281 C 506.214844 325.285156 495.53125 319.773438 485.582031 322.957031 C 485.105469 323.109375 484.609375 323.292969 484.066406 323.519531 C 483.585938 323.71875 483.039062 323.597656 482.679688 323.222656 L 445.292969 283.507812 L 436.550781 291.742188 Z M 436.554688 291.738281 " fill-opacity="1" fill-rule="nonzero"/><path fill="#7a8593" d="M 485.351562 237.472656 C 485.683594 238.503906 485.953125 239.554688 486.171875 240.621094 C 486.386719 241.683594 486.542969 242.769531 486.644531 243.867188 C 486.746094 244.964844 486.789062 246.078125 486.777344 247.207031 C 486.761719 248.335938 486.691406 249.476562 486.566406 250.632812 C 486.4375 251.785156 486.25 252.953125 486.007812 254.132812 C 485.765625 255.3125 485.46875 256.503906 485.113281 257.703125 C 484.757812 258.90625 484.34375 260.113281 483.875 261.335938 C 483.40625 262.554688 482.882812 263.78125 482.300781 265.015625 C 481.722656 266.253906 481.085938 267.492188 480.394531 268.742188 C 479.703125 269.988281 478.960938 271.242188 478.160156 272.5 C 477.363281 273.757812 476.507812 275.015625 475.601562 276.28125 C 474.695312 277.546875 473.738281 278.8125 472.726562 280.078125 C 471.71875 281.347656 470.65625 282.613281 469.542969 283.882812 C 468.429688 285.152344 467.269531 286.417969 466.058594 287.683594 C 464.84375 288.949219 463.585938 290.210938 462.277344 291.472656 C 460.96875 292.730469 459.613281 293.988281 458.210938 295.238281 C 456.808594 296.492188 455.363281 297.734375 453.871094 298.976562 C 452.378906 300.214844 450.847656 301.449219 449.269531 302.671875 C 447.691406 303.898438 446.070312 305.113281 444.410156 306.320312 C 442.75 307.53125 441.050781 308.726562 439.3125 309.914062 C 437.570312 311.101562 435.796875 312.277344 433.984375 313.441406 C 432.167969 314.605469 430.320312 315.753906 428.4375 316.890625 C 426.554688 318.03125 424.636719 319.152344 422.6875 320.261719 C 420.742188 321.371094 418.761719 322.464844 416.75 323.539062 C 414.742188 324.617188 412.703125 325.675781 410.640625 326.71875 C 408.574219 327.761719 406.484375 328.789062 404.367188 329.792969 C 402.25 330.800781 400.109375 331.789062 397.949219 332.753906 C 395.785156 333.722656 393.605469 334.667969 391.402344 335.59375 C 389.199219 336.519531 386.976562 337.421875 384.738281 338.304688 C 382.5 339.1875 380.246094 340.046875 377.980469 340.882812 C 375.710938 341.71875 373.429688 342.53125 371.136719 343.320312 C 368.847656 344.109375 366.542969 344.871094 364.230469 345.613281 C 361.921875 346.351562 359.601562 347.0625 357.277344 347.75 C 354.953125 348.4375 352.625 349.097656 350.292969 349.734375 C 347.957031 350.367188 345.625 350.972656 343.289062 351.554688 C 340.957031 352.132812 338.621094 352.683594 336.289062 353.207031 C 333.960938 353.730469 331.632812 354.226562 329.308594 354.691406 C 326.988281 355.160156 324.671875 355.597656 322.367188 356.003906 C 320.058594 356.410156 317.761719 356.789062 315.472656 357.136719 C 313.1875 357.488281 310.910156 357.804688 308.648438 358.09375 C 306.386719 358.378906 304.140625 358.636719 301.910156 358.867188 C 299.679688 359.09375 297.46875 359.289062 295.277344 359.453125 C 293.082031 359.621094 290.910156 359.753906 288.757812 359.859375 C 286.605469 359.960938 284.476562 360.035156 282.371094 360.078125 C 280.265625 360.117188 278.1875 360.128906 276.136719 360.109375 C 274.082031 360.085938 272.058594 360.035156 270.0625 359.953125 C 268.066406 359.871094 266.101562 359.757812 264.167969 359.609375 C 262.234375 359.464844 260.332031 359.289062 258.464844 359.082031 C 256.597656 358.878906 254.765625 358.640625 252.96875 358.371094 C 251.175781 358.105469 249.414062 357.808594 247.695312 357.480469 C 245.972656 357.152344 244.292969 356.792969 242.652344 356.40625 C 241.007812 356.015625 239.410156 355.597656 237.851562 355.152344 C 236.292969 354.707031 234.777344 354.230469 233.308594 353.726562 C 231.835938 353.222656 230.414062 352.6875 229.03125 352.128906 C 227.652344 351.566406 226.320312 350.980469 225.03125 350.363281 C 223.746094 349.746094 222.507812 349.105469 221.320312 348.433594 C 220.132812 347.765625 218.992188 347.070312 217.90625 346.347656 C 216.816406 345.625 215.777344 344.878906 214.792969 344.105469 C 213.804688 343.335938 212.871094 342.539062 211.992188 341.71875 C 211.109375 340.898438 210.28125 340.054688 209.507812 339.1875 C 208.734375 338.320312 208.015625 337.429688 207.351562 336.519531 C 206.6875 335.605469 206.074219 334.675781 205.523438 333.722656 C 204.96875 332.769531 204.46875 331.792969 204.027344 330.800781 C 203.585938 329.808594 203.199219 328.796875 202.871094 327.765625 C 202.539062 326.734375 202.269531 325.683594 202.050781 324.621094 C 201.835938 323.554688 201.679688 322.472656 201.578125 321.371094 C 201.476562 320.273438 201.433594 319.160156 201.445312 318.03125 C 201.460938 316.90625 201.53125 315.761719 201.65625 314.609375 C 201.785156 313.453125 201.972656 312.285156 202.214844 311.105469 C 202.457031 309.925781 202.753906 308.734375 203.109375 307.535156 C 203.464844 306.332031 203.878906 305.125 204.347656 303.902344 C 204.816406 302.683594 205.339844 301.457031 205.921875 300.222656 C 206.5 298.988281 207.136719 297.746094 207.828125 296.496094 C 208.519531 295.25 209.261719 293.996094 210.0625 292.738281 C 210.863281 291.480469 211.714844 290.222656 212.621094 288.957031 C 213.527344 287.691406 214.484375 286.425781 215.496094 285.160156 C 216.503906 283.890625 217.566406 282.625 218.679688 281.355469 C 219.792969 280.085938 220.953125 278.820312 222.164062 277.554688 C 223.378906 276.289062 224.636719 275.027344 225.945312 273.765625 C 227.253906 272.507812 228.609375 271.25 230.011719 270 C 231.414062 268.75 232.859375 267.503906 234.351562 266.261719 C 235.84375 265.023438 237.375 263.789062 238.953125 262.566406 C 240.53125 261.339844 242.152344 260.125 243.8125 258.917969 C 245.472656 257.710938 247.171875 256.511719 248.910156 255.324219 C 250.652344 254.136719 252.425781 252.960938 254.238281 251.796875 C 256.054688 250.636719 257.902344 249.484375 259.785156 248.347656 C 261.667969 247.210938 263.585938 246.085938 265.535156 244.976562 C 267.480469 243.867188 269.460938 242.777344 271.472656 241.699219 C 273.480469 240.621094 275.519531 239.5625 277.582031 238.519531 C 279.648438 237.476562 281.738281 236.449219 283.855469 235.445312 C 285.972656 234.4375 288.113281 233.453125 290.273438 232.484375 C 292.4375 231.515625 294.621094 230.570312 296.820312 229.644531 C 299.023438 228.71875 301.246094 227.816406 303.484375 226.933594 C 305.722656 226.050781 307.976562 225.191406 310.242188 224.355469 C 312.511719 223.519531 314.792969 222.707031 317.085938 221.917969 C 319.375 221.128906 321.679688 220.367188 323.992188 219.628906 C 326.300781 218.886719 328.621094 218.175781 330.945312 217.488281 C 333.269531 216.800781 335.597656 216.140625 337.929688 215.503906 C 340.265625 214.871094 342.597656 214.265625 344.933594 213.683594 C 347.265625 213.105469 349.601562 212.554688 351.933594 212.03125 C 354.261719 211.507812 356.589844 211.011719 358.914062 210.546875 C 361.234375 210.078125 363.550781 209.644531 365.855469 209.234375 C 368.164062 208.828125 370.460938 208.449219 372.75 208.101562 C 375.035156 207.753906 377.3125 207.433594 379.574219 207.144531 C 381.835938 206.859375 384.082031 206.601562 386.3125 206.375 C 388.542969 206.144531 390.753906 205.949219 392.945312 205.785156 C 395.140625 205.617188 397.3125 205.484375 399.464844 205.378906 C 401.617188 205.277344 403.746094 205.203125 405.851562 205.164062 C 407.957031 205.121094 410.035156 205.109375 412.085938 205.128906 C 414.140625 205.152344 416.164062 205.203125 418.160156 205.285156 C 420.15625 205.367188 422.121094 205.484375 424.054688 205.628906 C 425.988281 205.773438 427.890625 205.949219 429.757812 206.15625 C 431.625 206.363281 433.457031 206.597656 435.253906 206.867188 C 437.046875 207.132812 438.808594 207.433594 440.527344 207.761719 C 442.25 208.089844 443.929688 208.445312 445.570312 208.835938 C 447.214844 209.222656 448.8125 209.640625 450.371094 210.085938 C 451.929688 210.53125 453.445312 211.007812 454.914062 211.511719 C 456.386719 212.015625 457.8125 212.550781 459.191406 213.109375 C 460.570312 213.671875 461.902344 214.261719 463.191406 214.875 C 464.476562 215.492188 465.714844 216.136719 466.902344 216.804688 C 468.089844 217.472656 469.230469 218.171875 470.316406 218.890625 C 471.40625 219.613281 472.445312 220.359375 473.429688 221.132812 C 474.417969 221.90625 475.351562 222.699219 476.230469 223.523438 C 477.113281 224.34375 477.941406 225.1875 478.714844 226.050781 C 479.488281 226.917969 480.207031 227.808594 480.871094 228.71875 C 481.539062 229.632812 482.148438 230.5625 482.699219 231.515625 C 483.253906 232.472656 483.753906 233.445312 484.195312 234.4375 C 484.636719 235.429688 485.023438 236.445312 485.351562 237.472656 Z M 485.351562 237.472656 " fill-opacity="1" fill-rule="nonzero"/><path fill="#535a63" d="M 278.4375 361.363281 C 271.46875 361.363281 264.75 361.011719 258.34375 360.304688 C 243.359375 358.648438 230.867188 355.117188 221.214844 349.8125 C 211.082031 344.242188 204.511719 336.945312 201.695312 328.128906 C 198.878906 319.3125 200 309.558594 205.027344 299.140625 C 209.816406 289.21875 217.945312 279.097656 229.191406 269.054688 C 252.195312 248.511719 285.726562 230.53125 323.617188 218.417969 C 361.503906 206.304688 399.25 201.5 429.898438 204.890625 C 444.882812 206.542969 457.371094 210.074219 467.027344 215.382812 C 477.160156 220.953125 483.726562 228.25 486.546875 237.066406 C 489.363281 245.882812 488.242188 255.636719 483.214844 266.054688 C 478.425781 275.976562 470.292969 286.097656 459.050781 296.140625 C 436.046875 316.683594 402.515625 334.664062 364.625 346.777344 C 334.660156 356.355469 304.78125 361.363281 278.4375 361.367188 Z M 409.789062 206.320312 C 383.707031 206.320312 354.101562 211.289062 324.375 220.792969 C 286.8125 232.800781 253.597656 250.601562 230.847656 270.914062 C 219.847656 280.738281 211.914062 290.597656 207.265625 300.226562 C 202.527344 310.046875 201.449219 319.183594 204.066406 327.371094 C 206.683594 335.5625 212.855469 342.378906 222.410156 347.632812 C 231.777344 352.777344 243.957031 356.210938 258.617188 357.832031 C 264.941406 358.53125 271.574219 358.875 278.453125 358.875 C 304.535156 358.875 334.140625 353.910156 363.867188 344.402344 C 401.429688 332.394531 434.644531 314.59375 457.394531 294.285156 C 468.394531 284.460938 476.328125 274.597656 480.972656 264.972656 C 485.714844 255.148438 486.792969 246.015625 484.175781 237.824219 C 481.558594 229.636719 475.386719 222.820312 465.828125 217.566406 C 456.460938 212.417969 444.28125 208.988281 429.625 207.367188 C 423.300781 206.667969 416.664062 206.320312 409.789062 206.320312 Z M 409.789062 206.320312 " fill-opacity="1" fill-rule="nonzero"/><path fill="#9ca9ba" d="M 604.527344 153.25 L 56.984375 328.292969 L 46.363281 331.691406 L 50.191406 343.675781 C 57.976562 368.046875 191.617188 347.089844 348.679688 296.878906 C 505.746094 246.667969 626.761719 186.210938 618.976562 161.84375 L 615.148438 149.855469 Z M 604.527344 153.25 " fill-opacity="1" fill-rule="nonzero"/><path fill="#535a63" d="M 84.804688 355.085938 C 82.421875 355.085938 80.144531 355.042969 77.980469 354.949219 C 60.835938 354.226562 51.089844 350.5625 49.011719 344.054688 L 45.183594 332.066406 C 45.085938 331.753906 45.113281 331.410156 45.265625 331.121094 C 45.414062 330.824219 45.675781 330.605469 45.992188 330.503906 L 614.777344 148.667969 C 615.429688 148.460938 616.128906 148.820312 616.339844 149.476562 L 620.167969 161.464844 C 622.246094 167.96875 616.429688 176.609375 602.882812 187.144531 C 590.175781 197.027344 571.105469 208.34375 546.207031 220.78125 C 495.101562 246.3125 425.085938 273.761719 349.0625 298.066406 C 273.042969 322.367188 200.09375 340.625 143.65625 349.476562 C 119.867188 353.207031 100.117188 355.085938 84.808594 355.085938 Z M 47.933594 332.496094 L 51.382812 343.296875 C 53.085938 348.628906 62.316406 351.792969 78.085938 352.460938 C 94.007812 353.128906 115.9375 351.300781 143.265625 347.011719 C 199.582031 338.183594 272.398438 319.957031 348.304688 295.691406 C 424.210938 271.425781 494.097656 244.03125 545.09375 218.554688 C 569.847656 206.1875 588.773438 194.960938 601.355469 185.175781 C 613.816406 175.488281 619.5 167.550781 617.796875 162.222656 L 614.347656 151.421875 L 604.914062 154.4375 L 604.535156 153.25 L 604.914062 154.4375 L 47.929688 332.496094 Z M 47.933594 332.496094 " fill-opacity="1" fill-rule="nonzero"/><path fill="#becee2" d="M 615.148438 149.890625 C 615.378906 150.613281 615.492188 151.371094 615.496094 152.164062 C 615.496094 152.960938 615.386719 153.789062 615.160156 154.652344 C 614.933594 155.519531 614.589844 156.417969 614.136719 157.347656 C 613.683594 158.28125 613.113281 159.246094 612.433594 160.246094 C 611.75 161.242188 610.957031 162.273438 610.046875 163.335938 C 609.140625 164.398438 608.121094 165.488281 606.992188 166.613281 C 605.863281 167.734375 604.621094 168.886719 603.269531 170.070312 C 601.917969 171.25 600.460938 172.457031 598.890625 173.695312 C 597.324219 174.929688 595.648438 176.195312 593.867188 177.484375 C 592.085938 178.769531 590.199219 180.085938 588.210938 181.421875 C 586.21875 182.761719 584.125 184.121094 581.929688 185.507812 C 579.734375 186.890625 577.441406 188.296875 575.046875 189.722656 C 572.652344 191.148438 570.164062 192.597656 567.574219 194.0625 C 564.988281 195.527344 562.308594 197.011719 559.53125 198.515625 C 556.757812 200.015625 553.894531 201.535156 550.9375 203.070312 C 547.984375 204.601562 544.941406 206.152344 541.8125 207.714844 C 538.6875 209.277344 535.476562 210.851562 532.179688 212.4375 C 528.886719 214.023438 525.515625 215.621094 522.0625 217.230469 C 518.613281 218.839844 515.085938 220.457031 511.484375 222.082031 C 507.882812 223.707031 504.210938 225.335938 500.46875 226.976562 C 496.726562 228.613281 492.921875 230.257812 489.046875 231.902344 C 485.171875 233.550781 481.238281 235.199219 477.242188 236.851562 C 473.246094 238.503906 469.195312 240.160156 465.085938 241.8125 C 460.976562 243.464844 456.816406 245.117188 452.605469 246.769531 C 448.390625 248.417969 444.132812 250.066406 439.828125 251.710938 C 435.523438 253.355469 431.179688 254.992188 426.792969 256.625 C 422.40625 258.257812 417.980469 259.886719 413.523438 261.503906 C 409.0625 263.121094 404.574219 264.730469 400.054688 266.332031 C 395.535156 267.929688 390.988281 269.519531 386.417969 271.097656 C 381.851562 272.675781 377.261719 274.238281 372.652344 275.792969 C 368.042969 277.34375 363.417969 278.878906 358.78125 280.398438 C 354.144531 281.921875 349.496094 283.425781 344.84375 284.914062 C 340.1875 286.402344 335.53125 287.871094 330.871094 289.320312 C 326.210938 290.769531 321.554688 292.199219 316.898438 293.609375 C 312.246094 295.019531 307.597656 296.410156 302.960938 297.773438 C 298.324219 299.140625 293.699219 300.480469 289.089844 301.800781 C 284.480469 303.117188 279.886719 304.410156 275.316406 305.679688 C 270.746094 306.945312 266.199219 308.1875 261.679688 309.402344 C 257.160156 310.613281 252.667969 311.800781 248.207031 312.957031 C 243.75 314.117188 239.324219 315.242188 234.9375 316.339844 C 230.546875 317.441406 226.199219 318.507812 221.894531 319.542969 C 217.585938 320.578125 213.328125 321.582031 209.113281 322.554688 C 204.902344 323.527344 200.738281 324.464844 196.628906 325.367188 C 192.515625 326.273438 188.460938 327.144531 184.464844 327.980469 C 180.464844 328.816406 176.53125 329.617188 172.652344 330.382812 C 168.777344 331.144531 164.96875 331.875 161.222656 332.566406 C 157.480469 333.257812 153.804688 333.914062 150.203125 334.53125 C 146.597656 335.148438 143.070312 335.726562 139.617188 336.269531 C 136.160156 336.808594 132.785156 337.3125 129.488281 337.777344 C 126.191406 338.238281 122.980469 338.664062 119.847656 339.050781 C 116.71875 339.4375 113.671875 339.78125 110.714844 340.089844 C 107.757812 340.394531 104.890625 340.660156 102.113281 340.886719 C 99.332031 341.113281 96.648438 341.300781 94.058594 341.445312 C 91.46875 341.589844 88.972656 341.695312 86.578125 341.757812 C 84.179688 341.824219 81.882812 341.847656 79.683594 341.832031 C 77.484375 341.8125 75.386719 341.757812 73.394531 341.660156 C 71.398438 341.5625 69.511719 341.421875 67.726562 341.246094 C 65.941406 341.066406 64.261719 340.847656 62.6875 340.585938 C 61.117188 340.328125 59.652344 340.03125 58.300781 339.691406 C 56.945312 339.351562 55.699219 338.972656 54.566406 338.554688 C 53.433594 338.136719 52.410156 337.679688 51.5 337.183594 C 50.585938 336.6875 49.789062 336.152344 49.101562 335.582031 C 48.417969 335.007812 47.84375 334.398438 47.386719 333.75 C 46.925781 333.101562 46.582031 332.417969 46.351562 331.695312 C 46.121094 330.972656 46.003906 330.214844 46.003906 329.421875 C 46 328.625 46.113281 327.796875 46.339844 326.933594 C 46.566406 326.066406 46.90625 325.167969 47.363281 324.238281 C 47.816406 323.304688 48.386719 322.339844 49.066406 321.339844 C 49.75 320.34375 50.542969 319.3125 51.449219 318.25 C 52.359375 317.1875 53.375 316.09375 54.507812 314.972656 C 55.636719 313.851562 56.878906 312.699219 58.230469 311.515625 C 59.578125 310.335938 61.039062 309.128906 62.605469 307.890625 C 64.175781 306.652344 65.851562 305.390625 67.632812 304.101562 C 69.414062 302.8125 71.300781 301.5 73.289062 300.164062 C 75.28125 298.824219 77.375 297.464844 79.570312 296.078125 C 81.761719 294.695312 84.058594 293.289062 86.453125 291.863281 C 88.847656 290.4375 91.335938 288.988281 93.925781 287.523438 C 96.511719 286.058594 99.191406 284.574219 101.964844 283.070312 C 104.742188 281.570312 107.605469 280.050781 110.5625 278.515625 C 113.515625 276.984375 116.558594 275.433594 119.683594 273.871094 C 122.8125 272.308594 126.023438 270.734375 129.316406 269.148438 C 132.613281 267.558594 135.984375 265.960938 139.4375 264.355469 C 142.886719 262.746094 146.414062 261.128906 150.015625 259.503906 C 153.617188 257.878906 157.285156 256.25 161.027344 254.609375 C 164.769531 252.972656 168.578125 251.328125 172.453125 249.683594 C 176.324219 248.035156 180.261719 246.386719 184.257812 244.734375 C 188.253906 243.078125 192.304688 241.425781 196.414062 239.773438 C 200.523438 238.121094 204.683594 236.46875 208.894531 234.816406 C 213.105469 233.167969 217.363281 231.519531 221.667969 229.875 C 225.972656 228.230469 230.320312 226.59375 234.707031 224.960938 C 239.09375 223.324219 243.515625 221.699219 247.976562 220.082031 C 252.433594 218.464844 256.925781 216.855469 261.445312 215.253906 C 265.964844 213.652344 270.507812 212.066406 275.078125 210.488281 C 279.648438 208.910156 284.238281 207.34375 288.847656 205.792969 C 293.457031 204.242188 298.082031 202.707031 302.71875 201.183594 C 307.355469 199.664062 312.003906 198.160156 316.65625 196.671875 C 321.3125 195.183594 325.96875 193.714844 330.628906 192.265625 C 335.289062 190.8125 339.945312 189.382812 344.601562 187.972656 C 349.253906 186.566406 353.902344 185.175781 358.539062 183.8125 C 363.175781 182.445312 367.800781 181.105469 372.410156 179.785156 C 377.019531 178.46875 381.609375 177.175781 386.183594 175.90625 C 390.753906 174.640625 395.296875 173.398438 399.820312 172.183594 C 404.339844 170.96875 408.832031 169.785156 413.289062 168.628906 C 417.75 167.46875 422.175781 166.34375 426.5625 165.242188 C 430.953125 164.144531 435.300781 163.078125 439.605469 162.042969 C 443.910156 161.007812 448.171875 160.003906 452.382812 159.03125 C 456.597656 158.058594 460.761719 157.121094 464.871094 156.214844 C 468.980469 155.3125 473.035156 154.441406 477.035156 153.605469 C 481.03125 152.769531 484.96875 151.96875 488.84375 151.203125 C 492.722656 150.441406 496.53125 149.710938 500.273438 149.019531 C 504.019531 148.328125 507.691406 147.671875 511.296875 147.054688 C 514.898438 146.4375 518.429688 145.859375 521.882812 145.316406 C 525.335938 144.777344 528.714844 144.273438 532.007812 143.808594 C 535.304688 143.34375 538.519531 142.921875 541.652344 142.535156 C 544.78125 142.148438 547.828125 141.804688 550.785156 141.496094 C 553.742188 141.191406 556.609375 140.925781 559.386719 140.699219 C 562.164062 140.472656 564.847656 140.285156 567.441406 140.140625 C 570.03125 139.996094 572.523438 139.890625 574.921875 139.824219 C 577.320312 139.761719 579.617188 139.738281 581.816406 139.753906 C 584.015625 139.769531 586.109375 139.828125 588.105469 139.925781 C 590.097656 140.023438 591.988281 140.160156 593.773438 140.339844 C 595.558594 140.519531 597.238281 140.738281 598.808594 140.996094 C 600.382812 141.257812 601.84375 141.554688 603.199219 141.894531 C 604.554688 142.234375 605.796875 142.613281 606.933594 143.03125 C 608.066406 143.449219 609.089844 143.90625 610 144.402344 C 610.910156 144.898438 611.710938 145.429688 612.394531 146.003906 C 613.082031 146.578125 613.652344 147.1875 614.113281 147.835938 C 614.570312 148.484375 614.917969 149.167969 615.148438 149.890625 Z M 615.148438 149.890625 " fill-opacity="1" fill-rule="nonzero"/><path fill="#535a63" d="M 80.976562 343.097656 C 78.589844 343.097656 76.316406 343.054688 74.148438 342.960938 C 57.007812 342.238281 47.261719 338.574219 45.183594 332.066406 C 43.101562 325.5625 48.917969 316.921875 62.464844 306.386719 C 75.175781 296.503906 94.242188 285.1875 119.140625 272.75 C 170.25 247.214844 240.261719 219.769531 316.285156 195.464844 C 392.308594 171.164062 465.257812 152.90625 521.695312 144.054688 C 549.191406 139.746094 571.285156 137.902344 587.367188 138.582031 C 604.511719 139.304688 614.257812 142.96875 616.335938 149.476562 C 618.414062 155.984375 612.601562 164.621094 599.054688 175.15625 C 586.34375 185.039062 567.273438 196.359375 542.378906 208.796875 C 491.269531 234.328125 421.257812 261.773438 345.234375 286.078125 C 269.210938 310.382812 196.261719 328.640625 139.820312 337.488281 C 116.035156 341.21875 96.285156 343.097656 80.976562 343.097656 Z M 580.527344 140.933594 C 565.355469 140.933594 545.742188 142.808594 522.078125 146.515625 C 465.765625 155.347656 392.949219 173.570312 317.042969 197.835938 C 241.136719 222.101562 171.25 249.5 120.25 274.976562 C 95.5 287.339844 76.570312 298.570312 63.992188 308.351562 C 51.53125 318.042969 45.847656 325.976562 47.550781 331.308594 C 49.25 336.640625 58.484375 339.808594 74.25 340.472656 C 90.171875 341.144531 112.105469 339.3125 139.433594 335.027344 C 195.75 326.195312 268.566406 307.972656 344.472656 283.707031 C 420.378906 259.4375 490.265625 232.042969 541.261719 206.566406 C 566.011719 194.203125 584.941406 182.972656 597.523438 173.191406 C 609.980469 163.5 615.667969 155.566406 613.964844 150.234375 C 612.261719 144.902344 603.027344 141.734375 587.261719 141.070312 C 585.125 140.980469 582.878906 140.9375 580.527344 140.9375 Z M 580.527344 140.933594 " fill-opacity="1" fill-rule="nonzero"/><path fill="#535a63" d="M 130.65625 313.40625 C 128.964844 313.40625 127.347656 313.378906 125.796875 313.316406 C 111.507812 312.789062 103.726562 309.902344 101.996094 304.488281 C 100.265625 299.074219 104.933594 292.207031 116.261719 283.488281 C 126.675781 275.476562 142.277344 266.292969 162.640625 256.179688 C 204.421875 235.433594 261.628906 213.078125 323.722656 193.226562 C 385.816406 173.375 445.382812 158.402344 491.449219 151.0625 C 513.898438 147.488281 531.9375 145.917969 545.0625 146.402344 C 559.347656 146.933594 567.132812 149.820312 568.863281 155.234375 C 570.59375 160.648438 565.925781 167.515625 554.59375 176.234375 C 544.183594 184.242188 528.578125 193.429688 508.214844 203.542969 C 466.4375 224.285156 409.226562 246.644531 347.136719 266.496094 C 285.042969 286.347656 225.476562 301.320312 179.410156 308.660156 C 159.613281 311.8125 143.25 313.402344 130.65625 313.402344 Z M 540.191406 148.8125 C 527.738281 148.8125 511.507812 150.394531 491.84375 153.527344 C 445.898438 160.84375 386.460938 175.785156 324.484375 195.601562 C 262.507812 215.414062 205.425781 237.71875 163.75 258.414062 C 143.535156 268.449219 128.070312 277.550781 117.785156 285.464844 C 110.734375 290.890625 102.683594 298.460938 104.367188 303.734375 C 106.050781 309.003906 117 310.503906 125.886719 310.832031 C 138.851562 311.3125 156.730469 309.753906 179.019531 306.203125 C 224.964844 298.886719 284.398438 283.941406 346.375 264.128906 C 408.355469 244.316406 465.4375 222.007812 507.109375 201.316406 C 527.328125 191.277344 542.789062 182.175781 553.074219 174.261719 C 560.125 168.839844 568.175781 161.265625 566.492188 155.996094 C 564.808594 150.722656 553.859375 149.226562 544.972656 148.894531 C 543.449219 148.839844 541.855469 148.8125 540.191406 148.8125 Z M 540.191406 148.8125 " fill-opacity="1" fill-rule="nonzero"/><path fill="#ffffff" d="M 487.234375 188.601562 C 390.78125 247.996094 286.046875 281.476562 173.035156 289.050781 C 167.351562 289.429688 162.609375 284.75 162.886719 279.058594 L 165.191406 232.210938 C 168.582031 163.210938 214.417969 103.558594 280.199219 82.527344 C 345.984375 61.496094 417.90625 83.503906 460.671875 137.75 L 489.707031 174.578125 C 493.238281 179.054688 492.085938 185.617188 487.234375 188.601562 Z M 487.234375 188.601562 " fill-opacity="1" fill-rule="nonzero"/><path fill="#535a63" d="M 172.40625 290.316406 C 169.597656 290.316406 166.878906 289.214844 164.863281 287.230469 C 162.667969 285.074219 161.492188 282.070312 161.644531 278.996094 L 163.949219 232.148438 C 164.789062 215.039062 168.230469 198.246094 174.175781 182.234375 C 179.992188 166.570312 188.113281 151.894531 198.3125 138.621094 C 208.511719 125.347656 220.597656 113.722656 234.234375 104.066406 C 248.171875 94.199219 263.511719 86.550781 279.820312 81.335938 C 296.132812 76.125 313.0625 73.453125 330.136719 73.40625 C 346.847656 73.355469 363.429688 75.820312 379.433594 80.714844 C 395.4375 85.609375 410.558594 92.855469 424.386719 102.246094 C 438.507812 111.839844 451.046875 123.523438 461.652344 136.972656 L 490.6875 173.800781 C 492.589844 176.21875 493.375 179.34375 492.835938 182.375 C 492.300781 185.394531 490.496094 188.054688 487.886719 189.660156 C 439.796875 219.269531 388.941406 242.746094 336.722656 259.4375 C 284.503906 276.132812 229.460938 286.511719 173.117188 290.285156 C 172.878906 290.300781 172.640625 290.3125 172.402344 290.3125 Z M 330.605469 75.898438 C 330.449219 75.898438 330.296875 75.898438 330.144531 75.898438 C 313.324219 75.945312 296.648438 78.574219 280.582031 83.714844 C 264.511719 88.851562 249.402344 96.382812 235.675781 106.101562 C 222.238281 115.613281 210.332031 127.066406 200.285156 140.140625 C 190.238281 153.214844 182.238281 167.671875 176.507812 183.109375 C 170.652344 198.878906 167.265625 215.421875 166.433594 232.273438 L 164.132812 279.121094 C 164.015625 281.488281 164.917969 283.796875 166.605469 285.453125 C 168.289062 287.105469 170.605469 287.964844 172.953125 287.808594 C 229.09375 284.046875 283.9375 273.707031 335.964844 257.074219 C 387.992188 240.441406 438.664062 217.046875 486.582031 187.546875 L 487.234375 188.605469 L 486.582031 187.546875 C 488.589844 186.308594 489.976562 184.269531 490.386719 181.945312 C 490.800781 179.613281 490.199219 177.207031 488.734375 175.351562 L 459.699219 138.523438 C 449.25 125.273438 436.898438 113.761719 422.984375 104.3125 C 409.371094 95.0625 394.472656 87.925781 378.707031 83.101562 C 363.089844 78.324219 346.910156 75.902344 330.605469 75.902344 Z M 330.605469 75.898438 " fill-opacity="1" fill-rule="nonzero"/><path fill="#7a8593" d="M 468.796875 148.050781 C 375.140625 204.765625 273.722656 237.1875 164.546875 245.316406 L 162.886719 279.058594 C 162.609375 284.753906 167.351562 289.429688 173.035156 289.050781 C 286.046875 281.476562 390.78125 247.996094 487.234375 188.601562 C 492.089844 185.617188 493.238281 179.050781 489.707031 174.578125 Z M 468.796875 148.050781 " fill-opacity="1" fill-rule="nonzero"/><path fill="#535a63" d="M 172.40625 290.316406 C 169.597656 290.316406 166.878906 289.214844 164.863281 287.230469 C 162.667969 285.074219 161.492188 282.070312 161.644531 278.996094 L 163.304688 245.253906 C 163.332031 244.625 163.828125 244.121094 164.453125 244.074219 C 218.691406 240.035156 271.734375 229.820312 322.113281 213.714844 C 372.492188 197.609375 421.625 175.160156 468.152344 146.984375 C 468.6875 146.65625 469.382812 146.785156 469.773438 147.277344 L 490.6875 173.804688 C 492.589844 176.21875 493.375 179.34375 492.835938 182.375 C 492.300781 185.398438 490.496094 188.054688 487.886719 189.660156 C 439.796875 219.273438 388.941406 242.75 336.722656 259.441406 C 284.503906 276.136719 229.460938 286.515625 173.117188 290.289062 C 172.878906 290.304688 172.640625 290.3125 172.402344 290.3125 Z M 165.734375 246.476562 L 164.128906 279.121094 C 164.011719 281.488281 164.917969 283.796875 166.605469 285.453125 C 168.285156 287.105469 170.601562 287.964844 172.953125 287.808594 C 229.09375 284.046875 283.9375 273.707031 335.964844 257.074219 C 387.988281 240.441406 438.664062 217.046875 486.578125 187.546875 C 488.585938 186.308594 489.972656 184.269531 490.386719 181.945312 C 490.800781 179.613281 490.195312 177.207031 488.730469 175.351562 L 468.496094 149.6875 C 422.085938 177.695312 373.09375 200.039062 322.871094 216.09375 C 272.644531 232.148438 219.78125 242.371094 165.734375 246.480469 Z M 165.734375 246.476562 " fill-opacity="1" fill-rule="nonzero"/><path fill="#9ca9ba" d="M 528.625 74.742188 L 528.625 74.652344 C 528.617188 74.667969 528.613281 74.683594 528.613281 74.699219 C 528.605469 74.683594 528.601562 74.667969 528.597656 74.652344 L 528.597656 74.742188 C 527.425781 79 524.714844 82.042969 520.464844 83.871094 C 524.714844 85.703125 527.425781 88.746094 528.597656 93 L 528.597656 93.089844 C 528.605469 93.074219 528.609375 93.0625 528.613281 93.046875 C 528.617188 93.0625 528.621094 93.074219 528.625 93.089844 L 528.625 93 C 529.796875 88.746094 532.507812 85.703125 536.757812 83.871094 C 532.507812 82.042969 529.796875 79 528.625 74.742188 Z M 528.625 74.742188 " fill-opacity="1" fill-rule="nonzero"/><path fill="#9ca9ba" d="M 670.417969 167.761719 L 670.417969 167.671875 C 670.414062 167.6875 670.410156 167.703125 670.40625 167.714844 C 670.402344 167.703125 670.394531 167.6875 670.394531 167.671875 L 670.394531 167.761719 C 669.222656 172.015625 666.511719 175.058594 662.261719 176.890625 C 666.511719 178.71875 669.222656 181.761719 670.394531 186.019531 L 670.394531 186.109375 C 670.398438 186.09375 670.402344 186.078125 670.40625 186.0625 C 670.410156 186.078125 670.417969 186.09375 670.417969 186.109375 L 670.417969 186.019531 C 671.589844 181.761719 674.300781 178.71875 678.550781 176.890625 C 674.300781 175.058594 671.589844 172.015625 670.417969 167.761719 Z M 670.417969 167.761719 " fill-opacity="1" fill-rule="nonzero"/><path fill="#9ca9ba" d="M 136.878906 414.847656 L 136.878906 414.757812 C 136.875 414.773438 136.871094 414.785156 136.867188 414.800781 C 136.863281 414.785156 136.855469 414.773438 136.855469 414.757812 L 136.855469 414.847656 C 135.683594 419.101562 132.972656 422.144531 128.722656 423.976562 C 132.972656 425.804688 135.683594 428.847656 136.855469 433.105469 L 136.855469 433.195312 C 136.859375 433.179688 136.863281 433.164062 136.867188 433.148438 C 136.871094 433.164062 136.878906 433.179688 136.878906 433.195312 L 136.878906 433.105469 C 138.050781 428.847656 140.761719 425.804688 145.011719 423.976562 C 140.761719 422.144531 138.050781 419.101562 136.878906 414.847656 Z M 136.878906 414.847656 " fill-opacity="1" fill-rule="nonzero"/><path fill="#9ca9ba" d="M 183.210938 42.582031 L 183.210938 42.492188 C 183.207031 42.507812 183.199219 42.523438 183.199219 42.535156 C 183.191406 42.523438 183.1875 42.507812 183.183594 42.492188 L 183.183594 42.582031 C 182.011719 46.835938 179.300781 49.878906 175.054688 51.710938 C 179.300781 53.539062 182.011719 56.582031 183.183594 60.839844 L 183.183594 60.929688 C 183.191406 60.914062 183.195312 60.898438 183.199219 60.882812 C 183.203125 60.898438 183.207031 60.914062 183.210938 60.929688 L 183.210938 60.839844 C 184.382812 56.582031 187.09375 53.539062 191.34375 51.710938 C 187.09375 49.878906 184.382812 46.835938 183.210938 42.582031 Z M 183.210938 42.582031 " fill-opacity="1" fill-rule="nonzero"/><path fill="#9ca9ba" d="M 80.660156 220.734375 L 80.660156 220.644531 C 80.65625 220.660156 80.652344 220.671875 80.648438 220.6875 C 80.644531 220.671875 80.640625 220.660156 80.636719 220.644531 L 80.636719 220.734375 C 79.464844 224.988281 76.753906 228.03125 72.503906 229.863281 C 76.753906 231.691406 79.464844 234.734375 80.636719 238.992188 L 80.636719 239.082031 C 80.640625 239.066406 80.648438 239.050781 80.648438 239.035156 C 80.652344 239.050781 80.660156 239.066406 80.660156 239.082031 L 80.660156 238.992188 C 81.835938 234.734375 84.546875 231.691406 88.792969 229.863281 C 84.546875 228.03125 81.835938 224.988281 80.660156 220.734375 Z M 80.660156 220.734375 " fill-opacity="1" fill-rule="nonzero"/><path fill="#9ca9ba" d="M 108.480469 92.421875 L 108.480469 92.238281 C 108.472656 92.273438 108.460938 92.300781 108.453125 92.332031 C 108.445312 92.300781 108.4375 92.273438 108.429688 92.238281 L 108.429688 92.421875 C 106.085938 100.929688 100.664062 107.019531 92.164062 110.679688 C 100.664062 114.339844 106.082031 120.425781 108.429688 128.9375 L 108.429688 129.117188 C 108.4375 129.085938 108.445312 129.058594 108.453125 129.027344 C 108.460938 129.058594 108.472656 129.085938 108.480469 129.117188 L 108.480469 128.9375 C 110.824219 120.425781 116.246094 114.339844 124.746094 110.679688 C 116.246094 107.019531 110.828125 100.929688 108.480469 92.421875 Z M 108.480469 92.421875 " fill-opacity="1" fill-rule="nonzero"/><g clip-path="url(#ab90dfe760)"><path fill="#9ca9ba" d="M 635.652344 33.453125 L 635.652344 33.269531 C 635.644531 33.304688 635.632812 33.332031 635.625 33.363281 C 635.617188 33.332031 635.609375 33.304688 635.601562 33.269531 L 635.601562 33.453125 C 633.257812 41.960938 627.835938 48.050781 619.335938 51.710938 C 627.835938 55.371094 633.253906 61.460938 635.601562 69.96875 L 635.601562 70.148438 C 635.609375 70.117188 635.617188 70.089844 635.625 70.058594 C 635.632812 70.089844 635.644531 70.117188 635.652344 70.148438 L 635.652344 69.96875 C 637.996094 61.460938 643.417969 55.371094 651.914062 51.710938 C 643.417969 48.050781 638 41.960938 635.652344 33.453125 Z M 635.652344 33.453125 " fill-opacity="1" fill-rule="nonzero"/></g><path fill="#9ca9ba" d="M 605.789062 292.160156 L 605.789062 291.976562 C 605.78125 292.011719 605.773438 292.039062 605.765625 292.070312 C 605.757812 292.039062 605.746094 292.011719 605.738281 291.976562 L 605.738281 292.160156 C 603.394531 300.667969 597.972656 306.757812 589.472656 310.417969 C 597.972656 314.078125 603.390625 320.164062 605.738281 328.675781 L 605.738281 328.855469 C 605.746094 328.824219 605.757812 328.796875 605.765625 328.761719 C 605.773438 328.796875 605.78125 328.824219 605.789062 328.855469 L 605.789062 328.675781 C 608.132812 320.164062 613.554688 314.078125 622.054688 310.417969 C 613.554688 306.757812 608.136719 300.667969 605.789062 292.160156 Z M 605.789062 292.160156 " fill-opacity="1" fill-rule="nonzero"/><path fill="#d1def0" d="M 673.015625 678.113281 C 673.015625 678.75 672.933594 679.386719 672.773438 680.019531 C 672.609375 680.65625 672.367188 681.289062 672.042969 681.925781 C 671.722656 682.558594 671.316406 683.1875 670.832031 683.816406 C 670.347656 684.445312 669.785156 685.074219 669.140625 685.695312 C 668.5 686.320312 667.777344 686.941406 666.972656 687.558594 C 666.171875 688.175781 665.292969 688.789062 664.335938 689.398438 C 663.378906 690.003906 662.34375 690.609375 661.234375 691.207031 C 660.121094 691.808594 658.933594 692.398438 657.671875 692.988281 C 656.410156 693.574219 655.074219 694.15625 653.664062 694.730469 C 652.253906 695.304688 650.769531 695.875 649.214844 696.433594 C 647.660156 696.996094 646.035156 697.550781 644.339844 698.09375 C 642.644531 698.640625 640.878906 699.179688 639.046875 699.707031 C 637.214844 700.234375 635.316406 700.753906 633.351562 701.265625 C 631.386719 701.777344 629.355469 702.277344 627.265625 702.769531 C 625.171875 703.261719 623.015625 703.742188 620.800781 704.214844 C 618.585938 704.6875 616.3125 705.148438 613.980469 705.597656 C 611.648438 706.046875 609.261719 706.484375 606.816406 706.910156 C 604.371094 707.339844 601.875 707.753906 599.324219 708.15625 C 596.773438 708.5625 594.175781 708.953125 591.527344 709.332031 C 588.875 709.710938 586.179688 710.078125 583.4375 710.429688 C 580.695312 710.78125 577.910156 711.125 575.078125 711.449219 C 572.25 711.777344 569.382812 712.089844 566.472656 712.390625 C 563.5625 712.691406 560.617188 712.976562 557.636719 713.25 C 554.652344 713.519531 551.640625 713.777344 548.589844 714.019531 C 545.542969 714.265625 542.46875 714.492188 539.363281 714.707031 C 536.257812 714.921875 533.125 715.121094 529.96875 715.304688 C 526.8125 715.492188 523.632812 715.660156 520.433594 715.816406 C 517.234375 715.96875 514.015625 716.109375 510.78125 716.234375 C 507.546875 716.355469 504.296875 716.464844 501.035156 716.558594 C 497.769531 716.652344 494.5 716.730469 491.214844 716.792969 C 487.933594 716.855469 484.644531 716.902344 481.351562 716.933594 C 478.054688 716.964844 474.757812 716.980469 471.460938 716.980469 C 468.160156 716.980469 464.863281 716.964844 461.570312 716.933594 C 458.273438 716.902344 454.988281 716.855469 451.703125 716.792969 C 448.421875 716.730469 445.148438 716.652344 441.886719 716.558594 C 438.621094 716.464844 435.375 716.355469 432.136719 716.234375 C 428.902344 716.109375 425.6875 715.96875 422.484375 715.816406 C 419.285156 715.660156 416.109375 715.492188 412.953125 715.304688 C 409.792969 715.121094 406.664062 714.921875 403.558594 714.707031 C 400.453125 714.492188 397.375 714.265625 394.328125 714.019531 C 391.28125 713.777344 388.265625 713.519531 385.285156 713.25 C 382.300781 712.976562 379.355469 712.691406 376.449219 712.390625 C 373.539062 712.089844 370.667969 711.777344 367.839844 711.449219 C 365.011719 711.125 362.222656 710.78125 359.480469 710.429688 C 356.738281 710.078125 354.042969 709.710938 351.394531 709.332031 C 348.742188 708.953125 346.144531 708.5625 343.59375 708.15625 C 341.042969 707.753906 338.546875 707.339844 336.105469 706.910156 C 333.660156 706.484375 331.269531 706.046875 328.9375 705.597656 C 326.605469 705.148438 324.332031 704.6875 322.117188 704.214844 C 319.902344 703.742188 317.75 703.261719 315.65625 702.769531 C 313.5625 702.277344 311.535156 701.777344 309.570312 701.265625 C 307.605469 700.753906 305.707031 700.234375 303.871094 699.707031 C 302.039062 699.179688 300.277344 698.640625 298.582031 698.09375 C 296.882812 697.550781 295.257812 696.996094 293.703125 696.433594 C 292.148438 695.875 290.667969 695.304688 289.257812 694.730469 C 287.847656 694.15625 286.507812 693.574219 285.246094 692.988281 C 283.984375 692.398438 282.796875 691.808594 281.6875 691.207031 C 280.574219 690.609375 279.542969 690.003906 278.582031 689.394531 C 277.625 688.789062 276.746094 688.175781 275.945312 687.558594 C 275.144531 686.941406 274.421875 686.320312 273.777344 685.695312 C 273.132812 685.074219 272.570312 684.445312 272.085938 683.816406 C 271.601562 683.1875 271.199219 682.558594 270.875 681.925781 C 270.550781 681.289062 270.308594 680.65625 270.148438 680.019531 C 269.984375 679.386719 269.90625 678.75 269.90625 678.113281 C 269.90625 677.476562 269.984375 676.84375 270.148438 676.207031 C 270.308594 675.570312 270.550781 674.9375 270.875 674.304688 C 271.199219 673.671875 271.601562 673.039062 272.085938 672.410156 C 272.570312 671.78125 273.132812 671.15625 273.777344 670.53125 C 274.421875 669.910156 275.144531 669.289062 275.945312 668.671875 C 276.746094 668.054688 277.625 667.441406 278.582031 666.832031 C 279.542969 666.222656 280.574219 665.621094 281.6875 665.019531 C 282.796875 664.421875 283.984375 663.828125 285.246094 663.242188 C 286.507812 662.652344 287.847656 662.070312 289.257812 661.496094 C 290.667969 660.921875 292.148438 660.355469 293.703125 659.792969 C 295.257812 659.234375 296.882812 658.679688 298.582031 658.132812 C 300.277344 657.589844 302.039062 657.050781 303.871094 656.523438 C 305.707031 655.992188 307.605469 655.472656 309.570312 654.960938 C 311.535156 654.453125 313.5625 653.949219 315.65625 653.457031 C 317.75 652.96875 319.902344 652.484375 322.117188 652.015625 C 324.332031 651.542969 326.605469 651.082031 328.9375 650.632812 C 331.269531 650.183594 333.660156 649.742188 336.105469 649.316406 C 338.546875 648.890625 341.042969 648.472656 343.59375 648.070312 C 346.144531 647.667969 348.742188 647.277344 351.394531 646.898438 C 354.042969 646.519531 356.738281 646.152344 359.480469 645.800781 C 362.222656 645.445312 365.011719 645.105469 367.839844 644.777344 C 370.667969 644.453125 373.539062 644.136719 376.449219 643.839844 C 379.355469 643.539062 382.300781 643.253906 385.285156 642.980469 C 388.265625 642.707031 391.28125 642.449219 394.328125 642.207031 C 397.375 641.964844 400.453125 641.734375 403.558594 641.519531 C 406.664062 641.304688 409.796875 641.105469 412.953125 640.921875 C 416.109375 640.738281 419.285156 640.566406 422.484375 640.414062 C 425.6875 640.257812 428.902344 640.121094 432.136719 639.996094 C 435.375 639.871094 438.621094 639.761719 441.886719 639.667969 C 445.148438 639.578125 448.421875 639.5 451.703125 639.4375 C 454.988281 639.375 458.273438 639.328125 461.570312 639.296875 C 464.863281 639.265625 468.160156 639.25 471.460938 639.25 C 474.757812 639.25 478.054688 639.265625 481.351562 639.296875 C 484.644531 639.328125 487.933594 639.375 491.214844 639.4375 C 494.5 639.5 497.769531 639.578125 501.035156 639.667969 C 504.296875 639.761719 507.546875 639.871094 510.78125 639.996094 C 514.015625 640.121094 517.234375 640.257812 520.433594 640.414062 C 523.632812 640.566406 526.8125 640.738281 529.96875 640.921875 C 533.125 641.105469 536.257812 641.304688 539.363281 641.519531 C 542.46875 641.734375 545.542969 641.964844 548.589844 642.207031 C 551.640625 642.449219 554.652344 642.707031 557.636719 642.980469 C 560.617188 643.253906 563.5625 643.539062 566.472656 643.839844 C 569.382812 644.136719 572.25 644.453125 575.078125 644.777344 C 577.910156 645.105469 580.695312 645.445312 583.4375 645.800781 C 586.179688 646.152344 588.875 646.519531 591.527344 646.898438 C 594.175781 647.277344 596.773438 647.667969 599.324219 648.070312 C 601.875 648.472656 604.371094 648.890625 606.816406 649.316406 C 609.261719 649.742188 611.648438 650.183594 613.980469 650.632812 C 616.3125 651.082031 618.585938 651.542969 620.800781 652.015625 C 623.019531 652.484375 625.171875 652.96875 627.265625 653.457031 C 629.355469 653.949219 631.386719 654.453125 633.351562 654.960938 C 635.316406 655.472656 637.214844 655.992188 639.046875 656.523438 C 640.878906 657.050781 642.644531 657.589844 644.339844 658.132812 C 646.035156 658.679688 647.660156 659.234375 649.214844 659.792969 C 650.769531 660.355469 652.253906 660.921875 653.664062 661.496094 C 655.074219 662.070312 656.410156 662.652344 657.671875 663.242188 C 658.933594 663.828125 660.121094 664.421875 661.234375 665.019531 C 662.34375 665.621094 663.378906 666.222656 664.335938 666.832031 C 665.292969 667.441406 666.171875 668.054688 666.972656 668.671875 C 667.777344 669.289062 668.5 669.910156 669.140625 670.53125 C 669.785156 671.15625 670.347656 671.78125 670.832031 672.410156 C 671.316406 673.039062 671.722656 673.671875 672.042969 674.304688 C 672.367188 674.9375 672.609375 675.570312 672.773438 676.207031 C 672.933594 676.84375 673.015625 677.476562 673.015625 678.113281 Z M 673.015625 678.113281 " fill-opacity="1" fill-rule="nonzero"/><path fill="#adb9c8" d="M 81.46875 637.535156 L 72.503906 609.464844 L 107.382812 496.988281 L 146.21875 484.574219 L 174.941406 574.472656 L 191.613281 569.144531 L 201.230469 599.246094 L 184.558594 604.578125 L 193.003906 631.019531 L 158.234375 642.136719 L 149.785156 615.691406 Z M 126.105469 533.144531 L 108.453125 595.730469 L 142.613281 584.808594 Z M 126.105469 533.144531 " fill-opacity="1" fill-rule="nonzero"/><g clip-path="url(#6ef3e722ee)"><path fill="#adb9c8" d="M 589.472656 445.535156 L 592.464844 416.222656 L 669.371094 327.058594 L 709.929688 331.203125 L 700.347656 425.09375 L 717.761719 426.871094 L 714.550781 458.3125 L 697.136719 456.53125 L 694.320312 484.148438 L 658.007812 480.441406 L 660.824219 452.824219 Z M 672.089844 367.6875 L 630.90625 418 L 666.582031 421.644531 Z M 672.089844 367.6875 " fill-opacity="1" fill-rule="nonzero"/></g><path fill="#adb9c8" d="M 388.082031 419.8125 C 402.625 411.0625 419.4375 411.160156 438.511719 420.09375 C 457.585938 429.027344 468.417969 441.882812 471.015625 458.660156 C 473.613281 475.433594 469.71875 494.914062 459.34375 517.085938 C 448.84375 539.519531 436.320312 555.109375 421.773438 563.859375 C 407.226562 572.605469 390.417969 572.515625 371.34375 563.578125 C 352.269531 554.644531 341.433594 541.789062 338.839844 525.011719 C 336.242188 508.234375 340.195312 488.628906 350.695312 466.199219 C 361.074219 444.027344 373.535156 428.5625 388.082031 419.8125 Z M 436.6875 469.8125 C 437.140625 461.457031 432.921875 455.199219 424.027344 451.03125 C 415.136719 446.867188 407.625 447.632812 401.503906 453.332031 C 395.378906 459.03125 389.269531 468.386719 383.175781 481.410156 C 379.070312 490.175781 376.191406 497.667969 374.535156 503.890625 C 372.882812 510.109375 372.800781 515.734375 374.304688 520.753906 C 375.800781 525.78125 379.640625 529.738281 385.828125 532.636719 C 392.015625 535.535156 397.511719 535.953125 402.332031 533.886719 C 407.148438 531.820312 411.414062 528.160156 415.132812 522.902344 C 418.847656 517.652344 422.757812 510.644531 426.863281 501.871094 C 432.957031 488.851562 436.230469 478.164062 436.683594 469.808594 Z M 436.6875 469.8125 " fill-opacity="1" fill-rule="nonzero"/></svg>